# xmcd
# 
# Track frame offsets:
#     150
#     18938
#     41251
#     68889
#     86289
#     106368
#     130942
# 
# Disc length: 1948
# 
# Revision: 0
# Processed by: cddbd v1.5.2PL0 Copyright (c) Steve Scherf et al.
# Submitted via: BonkEnc v1.0.8
# 
DISCID=4d079a07
DTITLE=Charlie Brown - Why Is Everybody Always Pickun' On Me?
DYEAR=1972
DGENRE=Fusion
TTITLE0=Back on the Track
TTITLE1=The Long and Winding Road
TTITLE2=Love the One Your with
TTITLE3=C.C. Rider
TTITLE4=What Happened to Yeasterday?
TTITLE5=(Funky) Sunny
TTITLE6=I Wanna Be Where You Are
EXTD=
EXTT0=
EXTT1=
EXTT2=
EXTT3=
EXTT4=
EXTT5=
EXTT6=
PLAYORDER=
